<svg xmlns:xlink="http://www.w3.org/1999/xlink" xmlns="http://www.w3.org/2000/svg" version="1.1" viewBox="0 0 298.5 688"
    width="298.5" height="688">
    <path
        d="M 54.2 686.1 c -0.3 -0.5 -12.7 -34.2 -27.5 -74.9 c -14.8 -40.7 -27.3 -74.8 -27.7 -75.7 c -0.6 -1.5 15.3 -19.3 48.6 -54.3 l 4.8 -5 l 4.1 -27 c 4.9 -32.2 8.1 -49.8 12.2 -65.9 c 6.8 -27.2 12.1 -39.8 19.2 -46.2 c 10.7 -9.6 46.3 -20.6 71.9 -22 l 11.1 -0.6 l -0.7 -9.6 c -0.4 -5.3 -0.9 -13.1 -1.3 -17.5 l -0.6 -7.9 l -2.6 3.1 c -1.4 1.7 -5 4.7 -7.9 6.6 c -15.7 10.4 -38.5 10.2 -65.2 -0.6 c -14.1 -5.7 -40 -18.2 -40 -19.2 c 0 -2 15 -15.6 23.1 -20.9 c 18.4 -11.9 31.9 -16.7 49 -17.5 c 9.9 -0.4 12.7 -0.2 18.5 1.6 c 8 2.4 14 6.6 19 13 l 3.6 4.6 l -0.7 -12.5 c -0.4 -6.9 -0.9 -12.8 -1.1 -13.1 s -3.6 -0.9 -7.6 -1.2 c -7.1 -0.6 -24.4 -4.4 -30.2 -6.6 l -3 -1.1 l 7.4 -4 c 18.7 -10.1 37.8 -26.1 43 -36 c 2.3 -4.4 2.7 -4.6 11.3 -7.3 c 22.6 -6.9 54.9 -25.3 80.7 -46.1 c 5.2 -4.2 9.8 -7.3 10.2 -6.8 c 1.8 1.9 4.3 17.5 4.3 26.8 c 0 15.4 -4.5 29 -14.3 43.4 c -14.5 21.3 -33.3 30.4 -76.3 36.7 l -11.8 1.7 l 0.1 3.6 c 0.2 8.5 2.6 26.5 3.4 24.6 c 4.3 -11.2 10.9 -19.1 19.4 -23.4 c 17.9 -9.1 47.6 -5.9 74.2 8 c 8.9 4.7 22 14 22 15.6 c 0 1.4 -33.4 22.6 -43.9 27.9 c -17.2 8.8 -30.2 11.8 -43.5 10.2 c -8.1 -1 -18.6 -5.6 -23.3 -10.1 c -3.9 -3.8 -3.8 -5.2 -1.4 18.1 c 1.3 12.3 2.1 16.6 3.2 17.2 c 0.8 0.4 4.1 1.9 7.2 3.3 c 11 4.8 16.6 12.5 24.7 34.1 c 8.3 22.1 11.7 40.8 8.7 48 c -4.5 10.7 -13 13.8 -26.7 9.5 c -12.1 -3.7 -29.6 -17.8 -36 -28.8 l -2.2 -3.8 l -5.6 1.7 c -3.1 0.9 -6.8 2 -8.4 2.3 l -2.8 0.6 l 3.1 6.1 c 5.3 10.5 7.2 19.6 7.2 34.9 c 0 20.4 -4.7 39.7 -15.3 61.9 c -2.7 5.7 -4.9 10.6 -4.9 10.9 c 0 0.3 1 -0.3 2.1 -1.4 c 5.9 -5.3 17.2 -26.2 23.9 -44.1 c 1.9 -5.1 3.9 -9.1 4.4 -8.9 c 2.6 0.8 10.6 14.8 13.4 23.2 c 3.8 11.5 5.2 21.4 6 41.1 l 0.7 15.9 l 26.8 12 c 14.7 6.6 26.8 12.6 26.8 13.2 c 0 0.7 -4.4 5.6 -9.8 11 c -19.6 19.5 -41.1 28.8 -72.4 31.1 l -9.3 0.7 l -38.8 40 c -53 54.6 -55.2 56.8 -55.9 55.9 z m 198.8 -140.7 c -1.1 -0.6 -15 -7.1 -31 -14.3 l -29 -13.1 l -0.3 -9.6 l -0.3 -9.6 l 4.3 -0.6 c 18.4 -2.5 54 -5.8 61.8 -5.7 c 15.6 0 24.1 3.8 28.5 12.6 c 4.3 8.5 3 20.3 -3.1 28.3 c -5.6 7.4 -25.6 15.1 -30.9 12 z m -60.8 -54.4 c -0.2 -0.4 -0.7 -4 -1.1 -8 c -0.4 -4 -1.8 -11.9 -3.2 -17.5 c -1.4 -5.6 -2.9 -12.2 -3.3 -14.5 l -0.8 -4.2 l 3.6 -1 c 7.9 -2.1 18.7 -4.1 41.3 -7.5 c 24 -3.6 38.2 -4.4 45 -2.5 c 9.9 2.7 15 9.9 15.7 22 c 0.9 15.5 -4.8 22.7 -21 26.4 c -7.4 1.7 -61.5 7.5 -69.9 7.5 c -3.2 0 -6 -0.3 -6.2 -0.8 z m -20.9 -72.7 c -9.7 -19.4 -10.5 -21.6 -8.6 -21.6 c 2.9 0 12.6 5.6 22.3 13 c 4.4 3.3 10.3 6.8 13 7.8 c 7.2 2.5 18.8 2.3 24 -0.4 c 11.1 -5.8 15.6 -17.6 12.6 -33 c -1 -5.1 -1.8 -4.8 15.4 -6.3 c 20.4 -1.8 30.7 0.8 36.2 9.2 c 2.6 3.9 2.8 4.9 2.8 14.8 c 0 9.4 -0.3 11.2 -2.5 15.5 c -3.7 7.1 -8.3 9.2 -24 11 c -6.8 0.8 -25.5 3.4 -41.4 5.9 c -15.9 2.4 -31.3 4.7 -34 5.1 l -5 0.6 z m 57.5 -56.8 c -5.2 -16.1 -11.2 -29.9 -15.2 -34.9 l -3 -3.7 l 3.3 -0.6 c 1.8 -0.3 11.8 -1.4 22.3 -2.4 c 21.5 -2.1 29.4 -1.7 37.9 2.2 c 11.5 5.3 15.6 11.4 15.6 23 c 0 10 -2.1 16.8 -6.5 20.6 c -4.5 4 -7.6 4.7 -28 6.6 c -9.3 0.9 -18.1 1.8 -19.5 2.1 c -2.4 0.5 -2.7 0 -6.8 -12.8 z m -137.2 -155.1 c -19.3 -4.5 -35.4 -13.3 -45.1 -24.6 c -4.7 -5.5 -10.2 -16.5 -12 -24.1 c -1.9 -8.1 -1.7 -27.9 0.5 -37.5 c 2.4 -10.8 8.3 -22.6 15.3 -30.8 l 5.8 -6.8 l 1.2 9.8 c 4.2 33.4 10.9 48.3 21.8 48.3 c 2.7 0 3.7 0.8 7.1 5.7 c 8.4 12.2 22.6 24 34.1 28.3 c 9.5 3.6 26.8 6.1 35.4 5.1 c 4.1 -0.5 7.5 -0.7 7.7 -0.6 c 0.1 0.1 -3.3 3.6 -7.6 7.7 c -8.8 8.4 -18.5 14.6 -28.2 17.9 c -8 2.7 -27.3 3.6 -36 1.5 z m 39.5 -38.3 c -11.8 -2.5 -23.3 -9.7 -30.2 -18.8 c -9.1 -12 -11.9 -21.4 -11 -36.6 c 0.5 -7.9 2.9 -20 4.1 -20 c 0.2 0 6.3 2.9 13.7 6.4 c 18.6 8.9 28.3 11.7 43.5 12.3 c 10.1 0.4 13.4 0.1 20.5 -1.6 c 10.4 -2.6 23.8 -9.2 34.6 -17 l 8.1 -5.9 l 0.6 3 c 1.1 5.7 0.6 21 -1 27.1 c -5.8 22.4 -29.4 43.1 -56.7 49.7 c -7.6 1.8 -20.8 2.5 -26.2 1.3 z m 78.9 -24.5 c 5.3 -8.5 10.7 -21.1 13.3 -30.7 c 3.3 -12.6 3.8 -31.4 0.9 -40.7 c -7 -23 -23.9 -35.6 -50.2 -37.4 c -5.7 -0.4 -10.4 -0.5 -10.4 -0.2 s 2 2.5 4.5 5 l 4.5 4.5 l -15.7 0 c -13.9 0 -16.6 0.3 -23.1 2.4 c -26.7 8.7 -48.7 39.3 -56.1 77.6 l -1.7 9 l -2.2 -5 c -4.4 -9.9 -9.4 -24.1 -10.8 -31 c -1.8 -8.6 -1.2 -34 1.2 -45.5 c 5.2 -25.5 22.1 -36.5 53 -34.5 c 19.8 1.3 32.6 5.2 40.8 12.5 c 2.1 1.8 3.8 3.1 4 2.9 c 3.4 -5.4 13.3 -17.1 17.4 -20.8 c 15.4 -13.8 37.5 -16.7 56.2 -7.5 c 5.9 2.9 9.9 6.1 19.8 15.7 c 18.8 18.3 25.1 27.6 27.5 40.7 c 4 21.3 -15.1 53.7 -42.4 72 c -10.3 6.9 -23.6 13.5 -29.3 14.6 l -3.9 0.7 z m -74.9 -41.4 c -10.6 -2.9 -22.4 -9.6 -31.9 -18 c -3.7 -3.3 -3.8 -3.6 -2.5 -6.1 c 2.9 -5.4 13.8 -14.3 23.2 -18.9 c 13.6 -6.6 22.7 -8.7 37.7 -8.9 c 13.8 -0.1 19.7 1.1 30.4 6.6 c 6.2 3.1 15.6 11.9 18.8 17.6 l 1.8 3.1 l -7.8 5.6 c -10.5 7.5 -28 16.1 -37.7 18.6 c -9.3 2.3 -24.5 2.6 -32.1 0.5 z"
        fill="rgb(0, 0, 0)"></path>
</svg>